<svg width="456" height="297" viewBox="0 0 456 297" fill="none" xmlns="http://www.w3.org/2000/svg">
<path d="M53.8098 231.858C17.9366 231.858 0 213.944 0 178.116V53.7419C0 17.914 17.9366 0 53.8098 0H101.47C137.343 0 155.28 17.914 155.28 53.7419V70.6323L126.069 84.4516H124.531V53.7419C124.531 36.3398 116.844 27.6387 101.47 27.6387H53.8098C38.4356 27.6387 30.7485 36.3398 30.7485 53.7419V178.116C30.7485 195.518 38.4356 204.219 53.8098 204.219H101.47C116.844 204.219 124.531 195.518 124.531 178.116V161.226L153.742 147.406H155.28V178.116C155.28 213.944 137.343 231.858 101.47 231.858H53.8098Z" fill="black"/>
<path d="M229.537 238V27.9458H163.736V26.4103L176.189 0H326.088V1.53548L313.635 27.9458H260.286V224.181L231.075 238H229.537Z" fill="black"/>
<path d="M342.231 238V7.67742L358.527 0H456V1.53548L443.547 27.9458H372.979V101.956H456V103.492L443.547 129.902H372.979V224.181L343.768 238H342.231Z" fill="black"/>
<path d="M118.562 290.955C115.521 290.955 114 289.435 114 286.394V275.837C114 272.796 115.521 271.275 118.562 271.275H122.602C125.643 271.275 127.163 272.796 127.163 275.837V277.27L124.687 278.443H124.557V275.837C124.557 274.36 123.905 273.621 122.602 273.621H118.562C117.258 273.621 116.607 274.36 116.607 275.837V286.394C116.607 287.871 117.258 288.609 118.562 288.609H122.602C123.905 288.609 124.557 287.871 124.557 286.394V284.96L127.033 283.787H127.163V286.394C127.163 289.435 125.643 290.955 122.602 290.955H118.562Z" fill="black"/>
<path d="M135.635 288.609H138.632C139.501 288.609 139.936 288.088 139.936 287.045V280.529C139.936 279.486 139.501 278.965 138.632 278.965H135.635C134.766 278.965 134.332 279.486 134.332 280.529V287.045C134.332 288.088 134.766 288.609 135.635 288.609ZM135.635 290.955C133.028 290.955 131.725 289.652 131.725 287.045V280.529C131.725 277.922 133.028 276.619 135.635 276.619H138.632C141.239 276.619 142.542 277.922 142.542 280.529V287.045C142.542 289.652 141.239 290.955 138.632 290.955H135.635Z" fill="black"/>
<path d="M146.452 291.476V280.529C146.452 277.922 147.756 276.619 150.362 276.619H153.36C155.966 276.619 157.27 277.922 157.27 280.529V290.303L154.793 291.476H154.663V280.529C154.663 279.486 154.229 278.965 153.36 278.965H150.362C149.493 278.965 149.059 279.486 149.059 280.529V290.303L146.583 291.476H146.452Z" fill="black"/>
<path d="M165.09 288.609H168.087C168.956 288.609 169.39 288.088 169.39 287.045V280.529C169.39 279.486 168.956 278.965 168.087 278.965H165.09C164.221 278.965 163.786 279.486 163.786 280.529V287.045C163.786 288.088 164.221 288.609 165.09 288.609ZM165.09 290.955C162.483 290.955 161.18 289.652 161.18 287.045V280.529C161.18 277.922 162.483 276.619 165.09 276.619H168.087C170.694 276.619 171.997 277.922 171.997 280.529V295.647L169.521 296.82H169.39V290.551C169.043 290.82 168.608 290.955 168.087 290.955H165.09Z" fill="black"/>
<path d="M180.469 290.955C177.862 290.955 176.559 289.652 176.559 287.045V277.27L179.035 276.097H179.165V287.045C179.165 288.088 179.6 288.609 180.469 288.609H183.466C184.335 288.609 184.769 288.088 184.769 287.045V277.27L187.246 276.097H187.376V287.045C187.376 289.652 186.073 290.955 183.466 290.955H180.469Z" fill="black"/>
<path d="M195.196 290.955C192.589 290.955 191.286 289.652 191.286 287.045V280.529C191.286 277.922 192.589 276.619 195.196 276.619H198.193C200.8 276.619 202.103 277.922 202.103 280.529V281.219L193.932 287.54C194.053 288.253 194.475 288.609 195.196 288.609H198.193C199.062 288.609 199.497 288.088 199.497 287.045V286.354L201.973 285.181H202.103V287.045C202.103 289.652 200.8 290.955 198.193 290.955H195.196ZM193.893 284.817L199.484 280.307C199.432 279.412 199.001 278.965 198.193 278.965H195.196C194.327 278.965 193.893 279.486 193.893 280.529V284.817Z" fill="black"/>
<path d="M206.013 291.476V280.529C206.013 277.922 207.317 276.619 209.923 276.619H213.181V276.749L212.139 278.965H209.923C209.054 278.965 208.62 279.486 208.62 280.529V290.303L206.144 291.476H206.013Z" fill="black"/>
<path d="M227.544 291.476V278.991H224.194V278.86L225.25 276.619H227.544V271.927L230.02 270.754H230.15V276.619H233.5V276.749L232.444 278.991H230.15V290.303L227.674 291.476H227.544Z" fill="black"/>
<path d="M236.432 291.476V271.927L238.909 270.754H239.039V277.023C239.421 276.753 239.856 276.619 240.342 276.619H243.34C245.946 276.619 247.25 277.922 247.25 280.529V290.303L244.774 291.476H244.643V280.529C244.643 279.486 244.209 278.965 243.34 278.965H240.342C239.473 278.965 239.039 279.486 239.039 280.529V290.303L236.563 291.476H236.432Z" fill="black"/>
<path d="M255.07 290.955C252.463 290.955 251.16 289.652 251.16 287.045V280.529C251.16 277.922 252.463 276.619 255.07 276.619H258.067C260.674 276.619 261.977 277.922 261.977 280.529V281.219L253.805 287.54C253.927 288.253 254.348 288.609 255.07 288.609H258.067C258.936 288.609 259.371 288.088 259.371 287.045V286.354L261.847 285.181H261.977V287.045C261.977 289.652 260.674 290.955 258.067 290.955H255.07ZM253.766 284.817L259.357 280.307C259.305 279.412 258.875 278.965 258.067 278.965H255.07C254.201 278.965 253.766 279.486 253.766 280.529V284.817Z" fill="black"/>
<path d="M280.223 290.955C277.617 290.955 276.313 289.652 276.313 287.045V277.27L278.79 276.097H278.92V287.045C278.92 288.088 279.355 288.609 280.223 288.609H283.221C284.09 288.609 284.524 288.088 284.524 287.045V277.27L287.001 276.097H287.131V287.045C287.131 288.088 287.565 288.609 288.434 288.609H291.432C292.301 288.609 292.735 288.088 292.735 287.045V277.27L295.211 276.097H295.342V287.045C295.342 289.652 294.038 290.955 291.432 290.955H288.434C287.235 290.955 286.366 290.634 285.828 289.991C285.254 290.634 284.385 290.955 283.221 290.955H280.223Z" fill="black"/>
<path d="M303.162 288.609H306.159C307.028 288.609 307.462 288.088 307.462 287.045V280.529C307.462 279.486 307.028 278.965 306.159 278.965H303.162C302.293 278.965 301.858 279.486 301.858 280.529V287.045C301.858 288.088 302.293 288.609 303.162 288.609ZM303.162 290.955C300.555 290.955 299.252 289.652 299.252 287.045V280.529C299.252 277.922 300.555 276.619 303.162 276.619H306.159C308.766 276.619 310.069 277.922 310.069 280.529V287.045C310.069 289.652 308.766 290.955 306.159 290.955H303.162Z" fill="black"/>
<path d="M313.979 291.476V280.529C313.979 277.922 315.282 276.619 317.889 276.619H321.147V276.749L320.104 278.965H317.889C317.02 278.965 316.586 279.486 316.586 280.529V290.303L314.109 291.476H313.979Z" fill="black"/>
<path d="M324.014 291.476V271.927L326.491 270.754H326.621V290.303L324.145 291.476H324.014Z" fill="black"/>
<path d="M335.092 290.955C332.486 290.955 331.183 289.652 331.183 287.045V280.529C331.183 277.922 332.486 276.619 335.092 276.619H338.09C338.681 276.619 339.115 276.753 339.393 277.023V271.927L341.87 270.754H342V287.045C342 289.652 340.697 290.955 338.09 290.955H335.092ZM335.092 288.609H338.09C338.959 288.609 339.393 288.088 339.393 287.045V280.529C339.393 279.486 338.959 278.965 338.09 278.965H335.092C334.224 278.965 333.789 279.486 333.789 280.529V287.045C333.789 288.088 334.224 288.609 335.092 288.609Z" fill="black"/>
<circle cx="4" cy="284" r="4" fill="black"/>
<rect x="7" y="283" width="99" height="2" rx="1" fill="black"/>
<circle cx="452" cy="284" r="4" fill="black"/>
<rect x="350" y="283" width="99" height="2" rx="1" fill="black"/>
</svg>
