<svg width="185" height="97" viewBox="0 0 185 97" fill="none" xmlns="http://www.w3.org/2000/svg">
<path d="M21.7545 93.7368C7.25151 93.7368 0 86.4945 0 72.0098V21.7271C0 7.24236 7.25151 0 21.7545 0H41.0228C55.5259 0 62.7774 7.24236 62.7774 21.7271V28.5556L50.9678 34.1426H50.3462V21.7271C50.3462 14.6916 47.2384 11.1739 41.0228 11.1739H21.7545C15.539 11.1739 12.4312 14.6916 12.4312 21.7271V72.0098C12.4312 79.0452 15.539 82.5629 21.7545 82.5629H41.0228C47.2384 82.5629 50.3462 79.0452 50.3462 72.0098V65.1813L62.1558 59.5943H62.7774V72.0098C62.7774 86.4945 55.5259 93.7368 41.0228 93.7368H21.7545Z" fill="white"/>
<path d="M92.7986 96.2199V11.2981H66.196V10.6773L71.2306 0H131.833V0.620774L126.798 11.2981H105.23V90.633L93.4202 96.2199H92.7986Z" fill="white"/>
<path d="M138.359 96.2199V3.10387L144.947 0H184.354V0.620774L179.32 11.2981H150.79V41.2194H184.354V41.8402L179.32 52.5175H150.79V90.633L138.98 96.2199H138.359Z" fill="white"/>
</svg>
